<?xml version="1.0" ?><svg xmlns="http://www.w3.org/2000/svg" xmlns:xlink="http://www.w3.org/1999/xlink" version="1.0" viewBox="0 0 48 48" enable-background="new 0 0 48 48" xml:space="preserve"><g id="Layer_1"/><g id="_x32__x5F_Coin"><path d="M28.5,8C19.402,8,12,15.402,12,24.5C12,33.598,19.402,41,28.5,41C37.598,41,45,33.598,45,24.5C45,15.402,37.598,8,28.5,8z    M28.5,39C20.505,39,14,32.495,14,24.5S20.505,10,28.5,10S43,16.505,43,24.5S36.495,39,28.5,39z M28.5,12   C21.607,12,16,17.607,16,24.5S21.607,37,28.5,37S41,31.393,41,24.5S35.393,12,28.5,12z M28.5,35C22.71,35,18,30.29,18,24.5   C18,18.71,22.71,14,28.5,14C34.29,14,39,18.71,39,24.5C39,30.29,34.29,35,28.5,35z M3.5,21.5c0-1.126,1.068-1.941,6.387-2.522   c0.536-0.059,1.042,0.336,1.103,0.886c0.06,0.549-0.336,1.042-0.886,1.103C8.484,21.143,7.4,21.333,6.681,21.5   c0.72,0.167,1.805,0.357,3.426,0.534c0.549,0.06,0.946,0.554,0.886,1.103c-0.056,0.512-0.489,0.892-0.993,0.892   c-0.037,0-0.073-0.002-0.11-0.006C4.569,23.442,3.5,22.627,3.5,21.5z M3,25.5c0-0.552,0.448-1,1-1c0.41,0,0.762,0.247,0.917,0.6   c0.424,0.227,1.899,0.656,5.181,0.985c0.55,0.056,0.951,0.546,0.896,1.095c-0.052,0.516-0.486,0.9-0.994,0.9   c-0.033,0-0.067-0.002-0.101-0.005C3.533,27.437,3,26.453,3,25.5z M3,29.5c0-0.553,0.448-1,1-1c0.41,0,0.763,0.247,0.917,0.601   c0.475,0.258,2.22,0.743,6.194,1.078c0.55,0.046,0.959,0.529,0.913,1.08c-0.044,0.521-0.481,0.916-0.996,0.916   c-0.028,0-0.056-0.001-0.085-0.004C3.613,31.554,3,30.513,3,29.5z M3,33.5c0-0.553,0.448-1,1-1c0.41,0,0.762,0.246,0.917,0.6   c0.558,0.299,2.954,0.967,9.097,1.271c0.552,0.027,0.977,0.497,0.949,1.049c-0.026,0.534-0.468,0.95-0.998,0.95   c-0.017,0-0.034,0-0.05-0.001C3,35.828,3,34.313,3,33.5z M18.03,39.495c-0.011,0.545-0.457,0.979-1,0.979c-0.007,0-0.014,0-0.021,0   C3,40.186,3,38.234,3,37.5c0-0.553,0.448-1,1-1c0.412,0,0.765,0.248,0.918,0.604c0.88,0.504,5.039,1.225,12.132,1.371   C17.603,38.486,18.041,38.943,18.03,39.495z M32.931,26.5c0,1.93-1.57,3.5-3.5,3.5H29v1c0,0.553-0.447,1-1,1s-1-0.447-1-1v-1.023   c-1.623-0.118-2.912-1.462-2.912-3.115c0-0.553,0.448-1,1-1c0.553,0,1,0.447,1,1c0,0.627,0.511,1.138,1.139,1.138h2.204   c0.827,0,1.5-0.673,1.5-1.5s-0.673-1.5-1.5-1.5H27c-1.654,0-3-1.346-3-3s1.346-3,3-3h1v-1c0-0.552,0.447-1,1-1s1,0.448,1,1v1.028   c1.598,0.143,2.859,1.475,2.859,3.11c0,0.552-0.447,1-1,1s-1-0.448-1-1c0-0.627-0.511-1.138-1.138-1.138H27c-0.552,0-1,0.449-1,1   s0.448,1,1,1h2.431C31.36,23,32.931,24.57,32.931,26.5z M22,23.176v2.647c0,0.553-0.448,1-1,1s-1-0.447-1-1v-2.647   c0-0.552,0.448-1,1-1S22,22.624,22,23.176z M37,23.176v2.647c0,0.553-0.447,1-1,1s-1-0.447-1-1v-2.647c0-0.552,0.447-1,1-1   S37,22.624,37,23.176z"/></g></svg>